<svg xmlns="http://www.w3.org/2000/svg" viewBox="0 0 512 512">
  <defs>
    <linearGradient id="grad1" x1="0%" y1="0%" x2="100%" y2="100%">
      <stop offset="0%" style="stop-color:#C8621F;stop-opacity:1" />
      <stop offset="100%" style="stop-color:#B8860B;stop-opacity:1" />
    </linearGradient>
  </defs>
  <circle cx="256" cy="256" r="240" fill="url(#grad1)" />
  <path d="M192 128h64c44.18 0 80 35.82 80 80 0 25.6-12.7 48.3-32.9 62.7 26.9 11.2 46.9 38.3 46.9 69.3 0 48.6-39.4 88-88 88H192V128z" fill="none" stroke="white" stroke-width="40" stroke-linecap="round" stroke-linejoin="round"/>
  <path d="M192 288h64" stroke="white" stroke-width="40" stroke-linecap="round" stroke-linejoin="round"/>
  <!-- Leaf accent -->
  <path d="M360 400s40-40 40-100c0-40-20-60-20-60s-20 20-20 60c0 40 0 100 0 100z" fill="#3A5A40" stroke="white" stroke-width="10"/>
</svg>
